<svg width="400" height="400" viewBox="0 0 400 400" fill="none" xmlns="http://www.w3.org/2000/svg">
  <rect width="400" height="400" fill="#F3F4F6"/>
  <path d="M200 120C166.863 120 140 146.863 140 180C140 213.137 166.863 240 200 240C233.137 240 260 213.137 260 180C260 146.863 233.137 120 200 120ZM200 220C177.909 220 160 202.091 160 180C160 157.909 177.909 140 200 140C222.091 140 240 157.909 240 180C240 202.091 222.091 220 200 220Z" fill="#9CA3AF"/>
  <path d="M280 280H120C120 280 120 280 120 280V200C120 200 120 200 120 200H280V280Z" fill="#9CA3AF"/>
</svg> 